<svg xmlns="http://www.w3.org/2000/svg" version="1.1" xmlns:xlink="http://www.w3.org/1999/xlink" viewBox="0 0 200 200" width="200" height="200"><metadata><rdf:RDF xmlns:rdf="http://www.w3.org/1999/02/22-rdf-syntax-ns#" xmlns:dc="http://purl.org/dc/elements/1.1/"><rdf:Description><dc:creator>RealFaviconGenerator</dc:creator><dc:source>https://realfavicongenerator.net</dc:source></rdf:Description></rdf:RDF></metadata><rect width="200" height="200" fill="url('#gradient')"></rect><defs><linearGradient id="gradient" gradientTransform="rotate(45 0.5 0.5)"><stop offset="0%" stop-color="#954def"></stop><stop offset="100%" stop-color="#1931a9"></stop></linearGradient></defs><g><g fill="#ffffff" transform="matrix(2.9196895295422145,0,0,2.9196895295422145,6.176990212416769,120.46874187609369)" stroke="#41375b" stroke-width="0.4"><path d="M4.73-14.22L4.73 0L1.31 0L1.31-14.22L4.73-14.22ZM6.89-10.57L9.98-10.57L10.09-9.33Q11.18-10.76 13.11-10.76L13.11-10.76Q14.76-10.76 15.57-9.78Q16.39-8.79 16.42-6.81L16.42-6.81L16.42 0L13.12 0L13.12-6.67Q13.12-7.47 12.79-7.85Q12.47-8.22 11.62-8.22L11.62-8.22Q10.65-8.22 10.19-7.46L10.19-7.46L10.19 0L6.89 0L6.89-10.57ZM23.77-2.97L23.77-2.97Q23.77-3.39 23.33-3.64Q22.89-3.90 21.66-4.17Q20.43-4.44 19.63-4.89Q18.83-5.33 18.41-5.97Q17.99-6.60 17.99-7.42L17.99-7.42Q17.99-8.88 19.19-9.82Q20.39-10.76 22.33-10.76L22.33-10.76Q24.42-10.76 25.69-9.81Q26.96-8.87 26.96-7.32L26.96-7.32L23.66-7.32Q23.66-8.59 22.32-8.59L22.32-8.59Q21.81-8.59 21.46-8.31Q21.10-8.02 21.10-7.59L21.10-7.59Q21.10-7.15 21.53-6.88Q21.96-6.60 22.91-6.43Q23.85-6.25 24.56-6.01L24.56-6.01Q26.94-5.19 26.94-3.07L26.94-3.07Q26.94-1.62 25.66-0.71Q24.38 0.20 22.33 0.20L22.33 0.20Q20.98 0.20 19.91-0.29Q18.85-0.78 18.25-1.62Q17.66-2.46 17.66-3.39L17.66-3.39L20.73-3.39Q20.75-2.66 21.22-2.32Q21.69-1.98 22.42-1.98L22.42-1.98Q23.10-1.98 23.43-2.26Q23.77-2.53 23.77-2.97ZM29.02-13.19L32.31-13.19L32.31-10.57L34.05-10.57L34.05-8.28L32.31-8.28L32.31-3.45Q32.31-2.85 32.53-2.62Q32.74-2.38 33.38-2.38L33.38-2.38Q33.87-2.38 34.20-2.44L34.20-2.44L34.20-0.09Q33.31 0.20 32.34 0.20L32.34 0.20Q30.64 0.20 29.83-0.61Q29.02-1.41 29.02-3.04L29.02-3.04L29.02-8.28L27.68-8.28L27.68-10.57L29.02-10.57L29.02-13.19ZM44.59 0L41.30 0Q41.12-0.32 40.99-0.95L40.99-0.95Q40.08 0.20 38.45 0.20L38.45 0.20Q36.95 0.20 35.91-0.71Q34.86-1.61 34.86-2.98L34.86-2.98Q34.86-4.70 36.13-5.58Q37.40-6.46 39.82-6.46L39.82-6.46L40.84-6.46L40.84-7.01Q40.84-8.47 39.58-8.47L39.58-8.47Q38.41-8.47 38.41-7.31L38.41-7.31L35.12-7.31Q35.12-8.85 36.42-9.80Q37.72-10.76 39.75-10.76Q41.77-10.76 42.94-9.78Q44.11-8.79 44.14-7.07L44.14-7.07L44.14-2.39Q44.16-0.94 44.59-0.17L44.59-0.17L44.59 0ZM39.24-2.15L39.24-2.15Q39.85-2.15 40.26-2.41Q40.66-2.68 40.84-3.01L40.84-3.01L40.84-4.70L39.88-4.70Q38.16-4.70 38.16-3.15L38.16-3.15Q38.16-2.71 38.47-2.43Q38.77-2.15 39.24-2.15ZM45.90-10.57L48.98-10.57L49.09-9.33Q50.19-10.76 52.11-10.76L52.11-10.76Q53.76-10.76 54.58-9.78Q55.39-8.79 55.42-6.81L55.42-6.81L55.42 0L52.12 0L52.12-6.67Q52.12-7.47 51.80-7.85Q51.47-8.22 50.63-8.22L50.63-8.22Q49.66-8.22 49.19-7.46L49.19-7.46L49.19 0L45.90 0L45.90-10.57ZM57.78-13.19L61.07-13.19L61.07-10.57L62.81-10.57L62.81-8.28L61.07-8.28L61.07-3.45Q61.07-2.85 61.29-2.62Q61.50-2.38 62.14-2.38L62.14-2.38Q62.63-2.38 62.96-2.44L62.96-2.44L62.96-0.09Q62.07 0.20 61.10 0.20L61.10 0.20Q59.40 0.20 58.59-0.61Q57.78-1.41 57.78-3.04L57.78-3.04L57.78-8.28L56.44-8.28L56.44-10.57L57.78-10.57L57.78-13.19Z"></path></g></g></svg>